<svg height="47" width="46" xmlns="http://www.w3.org/2000/svg"><path d="m45.083 15.436c-.085-.507-.296-.937-.834-1.265-22.019-13.04-20.57-13.904-21.999-13.043-16.687 10.358-20.174 13.025-20.842 13.83-.606.62-.388 1.665-.388 16.027-.04 1.634 13.71 9.98 20.972 15.629.64.455 1.529.438 2.012 0 21.584-15.275 21.116-14.58 21.079-15.999.037.079-.023-15.373 0-15.18zm-1.891 12.534-8.162-4.37 8.162-5.338zm-30.191-5.72-9.557-6.28 18.548-12.046v12.655l-8.991 5.672zm19.935 0-8.932-5.672v-12.655l18.988 12.048zm-9.936 7.529-8.278-6.178 8.278-5.53 8.454 5.53zm-11.643-6.178c-3.604 2.163-6.82 3.454-8.349 4.37v-9.9zm1.644 1.413 8.991 6.84v12.208l-18.984-13.449zm11.003 19.048v-12.207l9.016-6.841 9.972 5.601z" fill="#4e95a6"/></svg>