<svg xmlns="http://www.w3.org/2000/svg" viewBox="0 0 48.605 48.605">
	<path fill="#4e95a6" d="M34.094 8.688h4.756V.005h-8.643c-.721-.03-9.51-.198-11.788 8.489-.033.091-.761 2.157-.761 6.983l-7.903.024v9.107l7.913-.023v24.021h12.087v-24h8v-9.131h-8v-2.873c0-1.786.753-3.914 4.339-3.914zm1.661 8.786v5.131h-8v24h-8.087V22.579l-7.913.023v-5.107l7.934-.023-.021-1.017c-.104-5.112.625-7.262.658-7.365 1.966-7.482 9.473-7.106 9.795-7.086l6.729.002v4.683h-2.756c-4.673 0-6.338 3.054-6.338 5.912v4.873h7.999z"/>
</svg>
