<svg height="358" width="650" xmlns="http://www.w3.org/2000/svg"><g fill="none" fill-rule="evenodd"><g stroke="#393939" stroke-linejoin="round" stroke-width="4"><path d="m5 19h640v321h-640z" fill="#fff"/><path d="m30 115h592v225h-592z"/><path d="m55 185h116v116h-116zm142 0h116v116h-116zm142 0h116v116h-116zm142 0h116v116h-116z"/></g><path d="m34.473 70.927c.455 0 .814-.14 1.077-.42.264-.28.396-.651.396-1.114v-9.202h7.076c2.634 0 4.694-.67 6.178-2.008 1.485-1.34 2.227-3.214 2.227-5.624s-.736-4.272-2.209-5.587c-1.472-1.315-3.538-1.972-6.196-1.972h-8.513c-.455 0-.82.134-1.096.402-.275.267-.413.62-.413 1.059v22.932c0 .463.132.834.395 1.114.264.28.623.42 1.078.42zm8.262-13.22h-6.79v-10.223h6.79c3.855 0 5.783 1.692 5.783 5.076 0 3.433-1.928 5.149-5.783 5.149zm14.567-8.946c.575 0 1.041-.17 1.4-.511.36-.34.54-.791.54-1.351 0-.536-.18-.974-.54-1.315-.359-.34-.825-.511-1.4-.511s-1.042.17-1.401.511c-.36.341-.539.78-.539 1.315 0 .56.18 1.01.539 1.351.36.34.826.511 1.4.511zm0 22.166c.43 0 .778-.122 1.041-.365.264-.244.396-.609.396-1.096v-15.41c0-.462-.132-.821-.396-1.077-.263-.256-.61-.383-1.041-.383s-.784.127-1.06.383c-.275.256-.413.615-.413 1.077v15.41c0 .463.138.822.413 1.078.276.255.629.383 1.06.383zm20.602 0c.455 0 .808-.128 1.06-.383.25-.256.377-.615.377-1.078v-9.896c0-4.698-2.096-7.048-6.287-7.048-1.317 0-2.49.287-3.52.859s-1.832 1.406-2.407 2.501v-1.862c0-.414-.125-.755-.377-1.023-.251-.268-.592-.401-1.023-.401-.455 0-.815.133-1.078.401s-.395.621-.395 1.06v15.41c0 .462.132.82.395 1.077.263.255.623.383 1.078.383s.808-.128 1.06-.383c.25-.256.376-.615.376-1.078v-8.91c0-1.704.48-3.055 1.437-4.053.958-.998 2.24-1.497 3.844-1.497 1.389 0 2.4.377 3.035 1.132.635.754.952 1.96.952 3.615v9.713c0 .463.132.822.395 1.078.264.255.623.383 1.078.383zm14.387 0c.599.049 1.048-.03 1.347-.237.3-.207.45-.518.45-.932 0-.706-.42-1.095-1.258-1.168l-.97-.073c-1.077-.073-1.886-.408-2.424-1.004-.54-.597-.809-1.564-.809-2.903v-9.312h3.988c.383 0 .688-.104.916-.31.227-.208.34-.481.34-.822 0-.365-.113-.658-.34-.877-.228-.219-.533-.328-.916-.328h-3.988v-4.127c0-.462-.131-.821-.395-1.077-.263-.256-.61-.383-1.041-.383-.455 0-.815.127-1.078.383s-.395.615-.395 1.077v4.127h-2.408c-.407 0-.724.11-.952.328-.227.22-.341.512-.341.877 0 .34.114.614.341.821.228.207.545.31.952.31h2.407v9.166c0 2.07.455 3.616 1.365 4.638.91 1.023 2.323 1.607 4.238 1.753l.97.073zm12.484.073c.91 0 1.844-.128 2.802-.383a10.776 10.776 0 0 0 2.73-1.15c.838-.512 1.257-1.072 1.257-1.68 0-.341-.096-.621-.287-.84-.192-.22-.42-.329-.683-.329-.215 0-.634.183-1.257.548-.766.438-1.485.785-2.155 1.04-.67.256-1.473.384-2.407.384-3.688 0-5.64-2.094-5.855-6.281h11.567c.43 0 .742-.11.934-.329.191-.219.287-.572.287-1.059 0-2.58-.67-4.625-2.012-6.134-1.34-1.51-3.149-2.265-5.424-2.265-1.604 0-3.035.39-4.292 1.169s-2.233 1.868-2.928 3.268c-.694 1.4-1.041 3.013-1.041 4.839 0 2.872.784 5.124 2.352 6.755 1.569 1.631 3.707 2.447 6.412 2.447zm4.383-10.59h-10.166c.168-1.777.712-3.153 1.634-4.126.922-.974 2.15-1.461 3.682-1.461 1.509 0 2.682.48 3.52 1.442.839.962 1.282 2.344 1.33 4.145zm8.388 10.517c.431 0 .779-.122 1.042-.365.264-.244.395-.609.395-1.096v-8.873c0-1.364.39-2.55 1.168-3.56.778-1.011 1.97-1.59 3.574-1.735l1.077-.11c.527-.048.898-.188 1.114-.42.215-.231.323-.541.323-.93 0-.902-.503-1.316-1.508-1.242l-.503.036c-1.198.097-2.257.426-3.18.986-.921.56-1.634 1.375-2.137 2.447v-2.045c0-.439-.131-.785-.395-1.041a1.34 1.34 0 0 0 -.97-.383c-.407 0-.754.127-1.041.383-.288.256-.431.615-.431 1.077v15.41c0 .463.137.822.413 1.078.275.255.628.383 1.06.383zm18.664.073c.91 0 1.844-.128 2.801-.383a10.776 10.776 0 0 0 2.73-1.15c.839-.512 1.258-1.072 1.258-1.68 0-.341-.096-.621-.288-.84-.191-.22-.419-.329-.682-.329-.216 0-.635.183-1.257.548-.767.438-1.485.785-2.156 1.04-.67.256-1.472.384-2.406.384-3.688 0-5.64-2.094-5.855-6.281h11.566c.431 0 .742-.11.934-.329s.287-.572.287-1.059c0-2.58-.67-4.625-2.011-6.134-1.341-1.51-3.15-2.265-5.424-2.265-1.605 0-3.036.39-4.293 1.169s-2.233 1.868-2.927 3.268c-.695 1.4-1.042 3.013-1.042 4.839 0 2.872.784 5.124 2.353 6.755 1.568 1.631 3.706 2.447 6.412 2.447zm4.382-10.59h-10.166c.168-1.777.713-3.153 1.635-4.126.922-.974 2.149-1.461 3.682-1.461 1.508 0 2.682.48 3.52 1.442s1.281 2.344 1.329 4.145zm12.806 10.59c2.083 0 3.76-.469 5.029-1.406 1.27-.937 1.904-2.173 1.904-3.706 0-.974-.192-1.778-.575-2.41-.383-.633-1.024-1.169-1.922-1.607s-2.161-.84-3.79-1.205c-1.1-.244-1.945-.493-2.532-.749-.586-.255-1.006-.548-1.257-.876-.251-.329-.377-.761-.377-1.297 0-.852.341-1.533 1.024-2.045.682-.51 1.586-.766 2.712-.766.886 0 1.628.121 2.227.365.598.243 1.233.584 1.903 1.022.575.414 1.006.621 1.294.621.263 0 .49-.11.682-.329s.287-.487.287-.803c0-.633-.407-1.242-1.22-1.826a8.003 8.003 0 0 0 -2.318-1.077 9.612 9.612 0 0 0 -2.712-.384c-1.293 0-2.448.232-3.466.694-1.018.463-1.814 1.096-2.389 1.9-.575.803-.862 1.728-.862 2.774 0 1.34.455 2.398 1.365 3.177.91.78 2.419 1.4 4.526 1.863 1.245.268 2.191.53 2.838.785.646.256 1.101.548 1.365.876.263.329.395.761.395 1.297 0 .876-.36 1.546-1.078 2.008-.718.463-1.724.694-3.017.694-1.054 0-1.934-.128-2.64-.384a11.874 11.874 0 0 1 -2.137-1.04c-.551-.365-.97-.548-1.258-.548a.884.884 0 0 0 -.7.31c-.18.207-.27.469-.27.785 0 .366.09.676.27.932.18.255.485.53.916.821.766.487 1.646.865 2.64 1.132.994.268 2.041.402 3.143.402zm18.806-.073c.599.049 1.048-.03 1.347-.237.3-.207.449-.518.449-.932 0-.706-.42-1.095-1.257-1.168l-.97-.073c-1.078-.073-1.886-.408-2.425-1.004-.539-.597-.808-1.564-.808-2.903v-9.312h3.987c.383 0 .689-.104.916-.31.228-.208.341-.481.341-.822 0-.365-.113-.658-.34-.877-.228-.219-.534-.328-.917-.328h-3.987v-4.127c0-.462-.132-.821-.395-1.077-.264-.256-.61-.383-1.042-.383-.455 0-.814.127-1.077.383-.264.256-.396.615-.396 1.077v4.127h-2.406c-.407 0-.725.11-.952.328-.228.22-.341.512-.341.877 0 .34.113.614.34.821.228.207.546.31.953.31h2.406v9.166c0 2.07.455 3.616 1.365 4.638.91 1.023 2.323 1.607 4.24 1.753zm-108.377 83.073a9.066 9.066 0 0 0 3.046-.507 7.43 7.43 0 0 0 2.492-1.45c.257-.236.386-.51.386-.825a.901.901 0 0 0 -.193-.59.575.575 0 0 0 -.458-.235c-.192 0-.425.086-.698.259-.819.629-1.565 1.069-2.24 1.32-.674.252-1.436.378-2.287.378-1.863 0-3.295-.594-4.299-1.78-1.003-1.187-1.505-2.881-1.505-5.082 0-2.185.502-3.87 1.505-5.057 1.004-1.187 2.436-1.78 4.299-1.78.867 0 1.633.125 2.3.377.666.251 1.408.691 2.227 1.32.273.173.506.26.698.26.177 0 .33-.083.458-.248a.914.914 0 0 0 .193-.578c0-.314-.129-.59-.386-.825a7.43 7.43 0 0 0 -2.492-1.45 9.066 9.066 0 0 0 -3.046-.507c-1.606 0-2.995.342-4.167 1.026-1.172.683-2.075 1.666-2.709 2.947s-.951 2.786-.951 4.515c0 1.745.317 3.258.951 4.539s1.537 2.264 2.71 2.947c1.171.684 2.56 1.026 4.166 1.026zm13.498-.024c1.108 0 2.087-.243 2.938-.73a4.89 4.89 0 0 0 1.963-2.087c.457-.904.686-1.953.686-3.148s-.229-2.244-.686-3.148a4.89 4.89 0 0 0 -1.963-2.086c-.85-.488-1.83-.731-2.938-.731s-2.083.243-2.926.73c-.843.488-1.493 1.184-1.95 2.087-.458.904-.687 1.953-.687 3.148s.23 2.244.687 3.148 1.107 1.6 1.95 2.086c.843.488 1.818.731 2.926.731zm0-1.58c-1.156 0-2.043-.377-2.66-1.131-.619-.755-.928-1.84-.928-3.254 0-1.399.313-2.48.94-3.242.625-.762 1.508-1.143 2.648-1.143s2.023.38 2.65 1.143c.625.762.938 1.843.938 3.242 0 1.43-.309 2.52-.927 3.266s-1.505 1.12-2.66 1.12zm9.55 1.533a.992.992 0 0 0 .686-.247c.184-.165.277-.397.277-.696v-14.972c0-.299-.093-.53-.277-.696a.992.992 0 0 0 -.687-.247c-.289 0-.525.082-.71.247s-.277.397-.277.696v14.972c0 .299.092.53.277.696.185.165.421.247.71.247zm9.525.047c1.107 0 2.087-.243 2.937-.73a4.89 4.89 0 0 0 1.963-2.087c.458-.904.686-1.953.686-3.148s-.228-2.244-.686-3.148a4.89 4.89 0 0 0 -1.963-2.086c-.85-.488-1.83-.731-2.937-.731-1.108 0-2.084.243-2.926.73-.843.488-1.493 1.184-1.951 2.087-.458.904-.686 1.953-.686 3.148s.228 2.244.686 3.148 1.108 1.6 1.95 2.086c.843.488 1.819.731 2.927.731zm0-1.58c-1.156 0-2.043-.377-2.662-1.131-.618-.755-.927-1.84-.927-3.254 0-1.399.313-2.48.94-3.242.626-.762 1.509-1.143 2.649-1.143s2.022.38 2.648 1.143c.627.762.94 1.843.94 3.242 0 1.43-.31 2.52-.927 3.266-.619.746-1.506 1.12-2.661 1.12zm9.549 1.533c.289 0 .522-.078.698-.236.177-.157.265-.392.265-.707v-5.73c0-.88.26-1.646.783-2.298.521-.653 1.32-1.026 2.396-1.12l.722-.071c.353-.031.602-.122.747-.271.144-.15.216-.35.216-.601 0-.582-.337-.85-1.01-.802l-.338.024c-.803.062-1.513.275-2.131.636-.618.362-1.096.888-1.433 1.58v-1.32c0-.283-.088-.507-.265-.673a.917.917 0 0 0 -.65-.247c-.273 0-.506.082-.699.247-.192.166-.289.397-.289.696v9.95c0 .299.093.53.277.696.185.165.422.247.71.247zm11.403.047c1.397 0 2.52-.302 3.372-.907.85-.606 1.276-1.403 1.276-2.394 0-.628-.128-1.147-.385-1.556-.257-.408-.687-.754-1.289-1.037s-1.449-.542-2.54-.778c-.739-.157-1.305-.319-1.698-.484s-.674-.353-.843-.565c-.168-.213-.253-.492-.253-.838 0-.55.229-.99.687-1.32.457-.33 1.063-.495 1.818-.495.594 0 1.091.079 1.493.236a7.68 7.68 0 0 1 1.276.66c.385.267.674.4.867.4.177 0 .33-.07.458-.211a.744.744 0 0 0 .192-.52c0-.408-.273-.8-.819-1.178a5.46 5.46 0 0 0 -1.553-.696 6.674 6.674 0 0 0 -1.818-.247c-.867 0-1.641.15-2.324.448-.682.298-1.216.707-1.601 1.226a2.925 2.925 0 0 0 -.578 1.792c0 .864.305 1.548.915 2.051s1.621.904 3.034 1.203c.835.173 1.47.341 1.903.507.433.165.738.353.915.565.176.213.265.492.265.837 0 .566-.241.999-.723 1.297-.481.299-1.156.448-2.023.448-.706 0-1.296-.082-1.77-.247a8.093 8.093 0 0 1 -1.433-.672c-.369-.236-.65-.354-.842-.354a.603.603 0 0 0 -.47.2.729.729 0 0 0 -.18.507c0 .236.06.437.18.602s.325.342.614.53a6.497 6.497 0 0 0 1.77.731c.666.173 1.369.26 2.107.26zm-11.282 70a.964.964 0 0 0 .632-.225.718.718 0 0 0 .274-.58.998.998 0 0 0 -.167-.546l-2.714-4.268c-.318-.506-.635-.9-.953-1.185a2.917 2.917 0 0 0 -1.07-.617c1.428-.174 2.527-.664 3.297-1.47s1.154-1.873 1.154-3.2c0-1.566-.48-2.751-1.44-3.557s-2.353-1.21-4.179-1.21h-5.904c-.302 0-.544.087-.726.261-.183.174-.274.403-.274.688v14.89c0 .3.087.541.262.723.174.182.413.273.714.273.286 0 .516-.091.69-.273.175-.182.262-.423.262-.723v-6.189h3c.762 0 1.365.123 1.81.368.444.245.873.692 1.285 1.34l3.19 5.026c.207.316.493.474.858.474zm-5.332-8.82h-4.81v-6.425h4.81c1.317 0 2.293.26 2.928.782s.953 1.32.953 2.395c0 1.09-.322 1.905-.965 2.442s-1.615.806-2.916.806zm14.488 8.844c.603 0 1.222-.083 1.857-.249a7.224 7.224 0 0 0 1.81-.747c.555-.332.833-.695.833-1.09a.788.788 0 0 0 -.19-.546.587.587 0 0 0 -.453-.213c-.143 0-.42.118-.833.355-.508.285-.984.51-1.429.676-.444.166-.976.25-1.595.25-2.444 0-3.738-1.36-3.88-4.079h7.666c.285 0 .492-.071.619-.213.127-.143.19-.372.19-.688 0-1.675-.444-3.003-1.333-3.983s-2.087-1.47-3.595-1.47c-1.064 0-2.012.253-2.845.759-.834.505-1.48 1.213-1.94 2.122-.461.908-.691 1.956-.691 3.141 0 1.865.52 3.327 1.56 4.386 1.039 1.06 2.456 1.589 4.25 1.589zm2.905-6.876h-6.738c.111-1.154.472-2.047 1.083-2.68.611-.631 1.425-.947 2.44-.947 1 0 1.778.312 2.334.936.555.624.849 1.521.88 2.691zm9.036 6.876c.905 0 1.694-.198 2.369-.593a3.816 3.816 0 0 0 1.536-1.683v1.28c0 .285.083.514.25.688.166.174.4.26.702.26.301 0 .54-.086.714-.26.175-.174.262-.403.262-.688v-15.08a.897.897 0 0 0 -.262-.663c-.174-.174-.413-.261-.714-.261-.302 0-.536.083-.702.249-.167.166-.25.391-.25.676v6.354a3.816 3.816 0 0 0 -1.536-1.683c-.675-.396-1.464-.593-2.37-.593-1.015 0-1.912.245-2.69.735-.777.49-1.38 1.185-1.809 2.086-.428.901-.643 1.944-.643 3.13 0 1.201.215 2.256.643 3.165.429.91 1.032 1.616 1.81 2.122.777.506 1.674.759 2.69.759zm.38-1.589c-1.126 0-2.003-.39-2.63-1.173s-.94-1.877-.94-3.284c0-1.375.313-2.442.94-3.2.627-.76 1.504-1.139 2.63-1.139 1.128 0 1.997.38 2.608 1.138.611.759.917 1.842.917 3.248 0 1.407-.306 2.494-.917 3.26-.611.767-1.48 1.15-2.607 1.15zm99.485 1.542c.287 0 .523-.087.706-.261s.275-.42.275-.735v-7.16l5.812-7.28a.849.849 0 0 0 .216-.592.866.866 0 0 0 -.263-.64.828.828 0 0 0 -.598-.261c-.271 0-.503.118-.694.355l-5.43 6.9-5.453-6.9c-.192-.237-.423-.355-.694-.355-.24 0-.45.087-.634.26a.848.848 0 0 0 -.275.64c0 .222.08.42.24.593l5.812 7.256v7.184c0 .316.091.56.275.735.183.174.418.26.705.26zm12.38.047c.605 0 1.227-.083 1.865-.249a7.276 7.276 0 0 0 1.818-.747c.558-.332.837-.695.837-1.09a.786.786 0 0 0 -.191-.546.591.591 0 0 0 -.455-.213c-.143 0-.422.118-.837.355-.51.285-.988.51-1.435.676-.446.166-.98.25-1.603.25-2.455 0-3.755-1.36-3.898-4.079h7.702c.287 0 .494-.071.622-.213.127-.143.19-.372.19-.688 0-1.675-.446-3.003-1.339-3.983s-2.096-1.47-3.611-1.47c-1.069 0-2.022.253-2.859.759a5.147 5.147 0 0 0 -1.95 2.122c-.462.908-.693 1.956-.693 3.141 0 1.865.522 3.327 1.567 4.386 1.044 1.06 2.468 1.589 4.27 1.589zm2.918-6.876h-6.77c.112-1.154.475-2.047 1.089-2.68.614-.631 1.431-.947 2.452-.947 1.004 0 1.786.312 2.344.936s.853 1.521.885 2.691zm5.586 6.829a.978.978 0 0 0 .681-.25c.184-.165.276-.398.276-.699v-15.056c0-.3-.092-.533-.276-.699a.978.978 0 0 0 -.681-.249c-.287 0-.523.083-.706.249s-.275.4-.275.7v15.055c0 .3.092.534.275.7s.419.249.706.249zm5.61 0a.978.978 0 0 0 .681-.25c.184-.165.276-.398.276-.699v-15.056c0-.3-.092-.533-.276-.699a.978.978 0 0 0 -.681-.249c-.287 0-.523.083-.706.249s-.275.4-.275.7v15.055c0 .3.092.534.275.7s.419.249.706.249zm9.46.047c1.101 0 2.074-.245 2.919-.735s1.495-1.19 1.95-2.098c.454-.91.681-1.964.681-3.166 0-1.2-.227-2.256-.682-3.165-.454-.909-1.104-1.608-1.95-2.098-.844-.49-1.817-.735-2.917-.735s-2.07.245-2.906.735c-.838.49-1.483 1.19-1.938 2.098-.454.909-.682 1.964-.682 3.165 0 1.202.228 2.257.682 3.166.455.909 1.1 1.608 1.938 2.098.837.49 1.805.735 2.906.735zm0-1.589c-1.147 0-2.028-.379-2.642-1.138-.614-.758-.921-1.849-.921-3.272 0-1.406.31-2.493.933-3.26.622-.766 1.499-1.15 2.63-1.15 1.133 0 2.01.384 2.632 1.15.622.767.933 1.854.933 3.26 0 1.439-.307 2.533-.921 3.284s-1.495 1.126-2.643 1.126zm20.943 1.494a1.1 1.1 0 0 0 .61-.178c.183-.118.323-.28.419-.486l3.97-9.958c.048-.126.072-.245.072-.356a.738.738 0 0 0 -.287-.592.988.988 0 0 0 -.646-.237c-.367 0-.63.19-.79.569l-3.3 8.701-3.373-8.654a.97.97 0 0 0 -.933-.64.958.958 0 0 0 -.538.166c-.167.11-.299.269-.394.474l-3.373 8.678-3.277-8.749c-.16-.38-.43-.57-.813-.57-.255 0-.49.088-.706.262-.215.174-.323.387-.323.64 0 .095.024.205.072.332l3.97 9.934c.096.206.24.368.431.486.191.119.39.178.598.178.223 0 .43-.06.622-.178a.973.973 0 0 0 .407-.486l3.277-8.322 3.3 8.322c.096.206.236.368.42.486.182.119.378.178.585.178zm81.061-.128c.305 0 .547-.09.724-.27s.265-.419.265-.716v-5.913h4.756c1.77 0 3.154-.43 4.151-1.29.998-.86 1.497-2.065 1.497-3.614 0-1.548-.495-2.745-1.485-3.59-.99-.844-2.377-1.267-4.163-1.267h-5.721c-.306 0-.551.086-.736.258s-.278.4-.278.68v14.736c0 .297.089.536.266.716s.418.27.724.27zm5.551-8.494h-4.562v-6.57h4.562c2.591 0 3.887 1.087 3.887 3.261 0 2.206-1.296 3.309-3.887 3.309zm12.83 8.54c.838 0 1.59-.18 2.258-.54a3.769 3.769 0 0 0 1.557-1.571v1.173a.86.86 0 0 0 .253.645c.169.164.398.247.688.247.306 0 .543-.086.712-.259a.899.899 0 0 0 .254-.657v-9.925c0-.281-.085-.508-.254-.68s-.406-.258-.712-.258-.547.086-.724.258-.266.399-.266.68v5.749c0 1.064-.313 1.92-.941 2.57-.628.648-1.456.973-2.486.973-.901 0-1.561-.239-1.98-.716-.418-.477-.627-1.224-.627-2.24v-6.336c0-.281-.085-.508-.254-.68s-.406-.258-.712-.258c-.305 0-.547.086-.724.258s-.265.399-.265.68v6.382c0 1.486.354 2.609 1.062 3.367.708.76 1.762 1.138 3.162 1.138zm10.417-.046c.29 0 .523-.079.7-.235.177-.157.266-.391.266-.704v-5.702c0-.876.261-1.638.784-2.287.523-.65 1.324-1.021 2.402-1.115l.724-.07c.354-.032.604-.122.748-.27.145-.149.218-.348.218-.598 0-.58-.338-.845-1.014-.798l-.338.023c-.805.063-1.517.274-2.136.634-.62.36-1.099.884-1.436 1.572v-1.314c0-.282-.089-.505-.266-.669a.923.923 0 0 0 -.652-.246c-.273 0-.507.082-.7.246s-.29.395-.29.692v9.902c0 .297.093.528.278.692s.423.247.712.247zm8.582 4.223c.306 0 .543-.082.712-.246.17-.165.254-.388.254-.67v-5.513c.354.72.873 1.275 1.557 1.666.684.39 1.484.586 2.402.586 1.046 0 1.959-.242 2.74-.727.78-.485 1.387-1.17 1.822-2.053.434-.884.651-1.92.651-3.109s-.217-2.233-.651-3.132c-.435-.9-1.046-1.6-1.835-2.1-.788-.5-1.698-.751-2.727-.751-.918 0-1.718.195-2.402.586a3.812 3.812 0 0 0 -1.557 1.666v-1.267c0-.281-.085-.508-.254-.68s-.406-.258-.712-.258c-.305 0-.547.086-.724.258s-.265.399-.265.68v14.149c0 .266.088.485.265.657s.419.258.724.258zm4.538-5.749c-1.142 0-2.023-.379-2.643-1.138-.62-.758-.93-1.834-.93-3.226s.31-2.464.93-3.214c.62-.751 1.5-1.127 2.643-1.127s2.028.388 2.656 1.162c.627.774.94 1.85.94 3.226 0 1.377-.313 2.44-.94 3.191-.628.751-1.513 1.126-2.656 1.126zm9.572 1.526a.999.999 0 0 0 .688-.247c.185-.164.278-.395.278-.692v-14.9c0-.297-.093-.527-.278-.692a.999.999 0 0 0 -.688-.246c-.29 0-.527.082-.712.246-.185.165-.278.395-.278.693v14.899c0 .297.093.528.278.692s.422.247.712.247zm9.861.046a7.6 7.6 0 0 0 1.883-.246 7.425 7.425 0 0 0 1.835-.739c.563-.329.844-.688.844-1.08a.769.769 0 0 0 -.193-.539.601.601 0 0 0 -.458-.211c-.145 0-.427.117-.845.352-.515.281-.998.504-1.448.668-.451.165-.99.247-1.618.247-2.478 0-3.79-1.345-3.934-4.036h7.772c.29 0 .5-.07.628-.211.129-.14.193-.368.193-.68 0-1.659-.45-2.973-1.352-3.942-.9-.97-2.116-1.455-3.645-1.455-1.078 0-2.04.25-2.884.75-.845.501-1.5 1.201-1.967 2.1-.467.9-.7 1.936-.7 3.11 0 1.845.527 3.292 1.58 4.34 1.055 1.048 2.49 1.572 4.31 1.572zm2.945-6.804h-6.83c.112-1.142.478-2.026 1.097-2.651.62-.626 1.445-.939 2.475-.939 1.013 0 1.802.309 2.365.927s.861 1.505.893 2.663zm86.884 6.981c.918 0 1.836-.079 2.755-.236.918-.157 1.7-.37 2.344-.636.323-.11.544-.26.665-.448.12-.189.181-.472.181-.85v-5.87c0-.252-.076-.448-.23-.59a.838.838 0 0 0 -.591-.212h-4.52c-.274 0-.492.067-.653.2-.161.134-.242.319-.242.555 0 .22.081.4.242.542.161.141.379.212.653.212h3.529v5.046c-1.225.44-2.587.66-4.085.66-2.014 0-3.541-.585-4.58-1.756-1.04-1.172-1.56-2.881-1.56-5.129 0-2.2.512-3.89 1.535-5.07 1.024-1.178 2.494-1.768 4.411-1.768.887 0 1.668.122 2.345.366s1.434.68 2.272 1.309c.258.188.483.282.677.282a.59.59 0 0 0 .483-.247.911.911 0 0 0 .194-.578c0-.283-.137-.558-.411-.825-.661-.629-1.475-1.112-2.442-1.45-.966-.338-2.014-.507-3.142-.507-1.627 0-3.045.342-4.254 1.026-1.208.683-2.135 1.662-2.78 2.935-.644 1.273-.966 2.782-.966 4.527 0 1.776.326 3.301.979 4.574.652 1.274 1.591 2.248 2.816 2.924 1.224.676 2.683 1.014 4.375 1.014zm10.72-.07c.29 0 .524-.08.7-.237.178-.157.267-.392.267-.707v-5.73c0-.88.262-1.646.785-2.298.524-.653 1.326-1.026 2.405-1.12l.725-.071c.355-.031.604-.122.75-.271.145-.15.217-.35.217-.601 0-.582-.338-.85-1.015-.802l-.338.024c-.806.062-1.52.275-2.14.636-.62.362-1.1.888-1.438 1.58v-1.32c0-.283-.088-.507-.266-.673a.922.922 0 0 0 -.652-.247c-.274 0-.508.082-.701.247-.193.166-.29.397-.29.696v9.95c0 .299.093.53.278.696.185.165.423.247.713.247zm12.557.046c.612 0 1.24-.082 1.885-.247a7.42 7.42 0 0 0 1.837-.743c.564-.33.846-.692.846-1.084 0-.22-.064-.401-.193-.543a.601.601 0 0 0 -.46-.212c-.144 0-.426.118-.845.354a10.65 10.65 0 0 1 -1.45.672c-.452.165-.991.247-1.62.247-2.481 0-3.795-1.352-3.94-4.055h7.783c.29 0 .5-.071.629-.212.129-.142.193-.37.193-.684 0-1.666-.451-2.987-1.354-3.961-.902-.975-2.118-1.462-3.65-1.462-1.079 0-2.042.251-2.888.754a5.15 5.15 0 0 0 -1.97 2.11c-.467.904-.7 1.946-.7 3.125 0 1.855.527 3.309 1.583 4.362 1.055 1.053 2.493 1.58 4.314 1.58zm2.949-6.837h-6.84c.113-1.148.48-2.036 1.1-2.665.62-.628 1.446-.943 2.477-.943 1.015 0 1.805.31 2.369.932.564.62.862 1.512.894 2.676zm9.85 6.837c.612 0 1.24-.082 1.885-.247a7.42 7.42 0 0 0 1.837-.743c.564-.33.846-.692.846-1.084 0-.22-.064-.401-.193-.543a.601.601 0 0 0 -.46-.212c-.144 0-.426.118-.845.354a10.65 10.65 0 0 1 -1.45.672c-.452.165-.991.247-1.62.247-2.481 0-3.795-1.352-3.94-4.055h7.783c.29 0 .5-.071.629-.212.129-.142.193-.37.193-.684 0-1.666-.451-2.987-1.354-3.961-.902-.975-2.118-1.462-3.65-1.462-1.079 0-2.042.251-2.888.754a5.15 5.15 0 0 0 -1.97 2.11c-.467.904-.7 1.946-.7 3.125 0 1.855.527 3.309 1.583 4.362 1.055 1.053 2.493 1.58 4.314 1.58zm2.949-6.837h-6.84c.113-1.148.48-2.036 1.1-2.665.62-.628 1.446-.943 2.477-.943 1.015 0 1.805.31 2.369.932.564.62.862 1.512.894 2.676zm13.838 6.79c.306 0 .544-.082.713-.247.17-.165.254-.397.254-.696v-6.39c0-3.033-1.41-4.55-4.23-4.55-.886 0-1.676.184-2.368.554a3.913 3.913 0 0 0 -1.62 1.615v-1.203a.905.905 0 0 0 -.254-.66c-.169-.173-.398-.26-.688-.26-.307 0-.548.087-.726.26-.177.173-.265.401-.265.684v9.95c0 .299.088.53.265.696.178.165.42.247.726.247s.543-.082.713-.247c.169-.165.253-.397.253-.696v-5.753c0-1.1.323-1.973.967-2.617.645-.645 1.507-.967 2.586-.967.935 0 1.616.244 2.043.731s.64 1.265.64 2.334v6.272c0 .299.089.53.266.696.177.165.419.247.725.247z" fill="#393939" fill-rule="nonzero"/><circle cx="601" cy="59" r="21" stroke="#393939" stroke-width="4"/></g></svg>